<?xml version="1.0" encoding="UTF-8" standalone="no"?>
<!DOCTYPE svg PUBLIC "-//W3C//DTD SVG 1.1//EN" "http://www.w3.org/Graphics/SVG/1.1/DTD/svg11.dtd">
<svg width="100%" height="100%" viewBox="0 0 128 128" version="1.1" xmlns="http://www.w3.org/2000/svg" xmlns:xlink="http://www.w3.org/1999/xlink" xml:space="preserve" xmlns:serif="http://www.serif.com/" style="fill-rule:evenodd;clip-rule:evenodd;stroke-linejoin:round;stroke-miterlimit:2;">
    <g transform="matrix(1.00824,0,0,1.01899,-0.268952,-1.47635)">
        <path d="M119.286,25.002L119.286,103.511C119.286,112.177 112.175,119.213 103.417,119.213L24.071,119.213C15.312,119.213 8.201,112.177 8.201,103.511L8.201,25.002C8.201,16.336 15.312,9.3 24.071,9.3L103.417,9.3C112.175,9.3 119.286,16.336 119.286,25.002Z" style="fill:rgb(124,0,143);"/>
    </g>
    <g transform="matrix(0.846294,0,0,0.846294,-5.27912,12.6161)">
        <text x="24.55px" y="27.461px" style="font-family:'FiraCodeNF-Med', 'FiraCode Nerd Font', monospace;font-weight:500;font-size:23.632px;fill:white;">Optional</text>
        <text x="24.55px" y="53.457px" style="font-family:'FiraCodeNF-Med', 'FiraCode Nerd Font', monospace;font-weight:500;font-size:23.632px;fill:white;">Value</text>
        <g transform="matrix(23.6325,0,0,23.6325,68.1792,79.4527)">
        </g>
        <text x="24.55px" y="79.453px" style="font-family:'FiraCodeNF-Med', 'FiraCode Nerd Font', monospace;font-weight:500;font-size:23.632px;fill:white;">&lt;T&gt;</text>
    </g>
</svg>
